<svg width="140" height="48" viewBox="0 0 140 48" fill="none" xmlns="http://www.w3.org/2000/svg">
<path d="M73.6143 12.8044C73.6143 14.354 72.3657 15.6019 70.8159 15.6019C69.2661 15.6019 68.0185 14.354 68.0185 12.8044C68.0185 11.2547 69.2237 10.0068 70.8159 10.0068C72.4094 10.0498 73.6143 11.2981 73.6143 12.8044ZM62.0784 18.4433V19.1321C62.0784 19.1321 60.7447 17.4095 57.9039 17.4095C53.2125 17.4095 49.5534 20.9823 49.5534 25.9319C49.5534 30.839 53.1694 34.4543 57.9039 34.4543C60.7878 34.4543 62.0784 32.6897 62.0784 32.6897V33.4211C62.0784 33.7655 62.3372 34.023 62.6814 34.023H66.1672V17.8387H62.6814C62.3372 17.84 62.0784 18.1418 62.0784 18.4433ZM62.0784 28.8159C61.4334 29.7632 60.1417 30.581 58.5926 30.581C55.8379 30.581 53.7286 28.8593 53.7286 25.9319C53.7286 23.005 55.8379 21.2833 58.5926 21.2833C60.0993 21.2833 61.4765 22.1442 62.0784 23.048V28.8159ZM68.7503 17.84H72.8821V34.0244H68.7503V17.84ZM130.473 17.4091C127.632 17.4091 126.297 19.1317 126.297 19.1317V10.0498H122.166V34.0244H125.652C125.997 34.0244 126.254 33.7229 126.254 33.4215V32.6901C126.254 32.6901 127.589 34.4548 130.429 34.4548C135.121 34.4548 138.78 30.8403 138.78 25.9332C138.78 21.0262 135.121 17.4091 130.473 17.4091ZM129.784 30.5376C128.191 30.5376 126.943 29.7206 126.297 28.7729V23.005C126.943 22.1442 128.321 21.2403 129.784 21.2403C132.539 21.2403 134.648 22.962 134.648 25.8889C134.648 28.8159 132.539 30.5376 129.784 30.5376ZM120.014 24.4261V34.0674H115.881V24.8991C115.881 22.231 115.021 21.1543 112.698 21.1543C111.45 21.1543 110.158 21.8002 109.339 22.7474V34.0248H105.208V17.8404H108.478C108.823 17.8404 109.081 18.1418 109.081 18.4433V19.1321C110.286 17.8834 111.879 17.4095 113.471 17.4095C115.279 17.4095 116.786 17.9268 117.991 18.9597C119.454 20.1649 120.014 21.7142 120.014 24.4261ZM95.178 17.4091C92.3378 17.4091 91.0031 19.1317 91.0031 19.1317V10.0498H86.8712V34.0244H90.3574C90.7016 34.0244 90.96 33.7229 90.96 33.4215V32.6901C90.96 32.6901 92.2948 34.4548 95.1349 34.4548C99.827 34.4548 103.485 30.8403 103.485 25.9332C103.528 21.0258 99.8697 17.4091 95.178 17.4091ZM94.4889 30.5376C92.8967 30.5376 91.6488 29.7206 91.0031 28.7729V23.005C91.6488 22.1442 93.0263 21.2403 94.4889 21.2403C97.2442 21.2403 99.3529 22.962 99.3529 25.8889C99.3529 28.8159 97.2442 30.5376 94.4889 30.5376ZM83.2986 17.4091C84.5462 17.4091 85.1922 17.625 85.1922 17.625V21.4553C85.1922 21.4553 81.7488 20.293 79.5971 22.747V34.0669H75.4645V17.84H78.9514C79.2956 17.84 79.5533 18.1414 79.5533 18.4428V19.1317C80.3289 18.2274 82.0076 17.4091 83.2986 17.4091ZM40.3859 32.5607C40.1709 32.0443 39.9556 31.4849 39.7406 31.011C39.3957 30.2366 39.0511 29.5043 38.7507 28.8159L38.7076 28.7729C35.7372 22.3162 32.5528 15.7743 29.195 9.31844L29.066 9.05958C28.7129 8.38984 28.3687 7.71542 28.0336 7.03648C27.6028 6.26121 27.1728 5.44422 26.4839 4.66895C25.1067 2.94727 23.1266 2 21.0179 2C18.8654 2 16.9287 2.94727 15.5089 4.58252C14.863 5.35693 14.3892 6.1748 13.9592 6.95007C13.6233 7.62859 13.2791 8.30298 12.9268 8.97316L12.7973 9.23199C9.48298 15.6879 6.25506 22.2302 3.28512 28.6865L3.2417 28.772C2.94071 29.4617 2.59585 30.1931 2.25143 30.9671C2.03643 31.441 1.82144 31.9574 1.60644 32.5168C1.0466 34.1091 0.874161 35.6157 1.09002 37.166C1.56344 40.3941 3.7151 43.105 6.68548 44.3109C7.80475 44.785 8.96702 45 10.1718 45C10.5163 45 10.9462 44.9569 11.2911 44.9135C12.7118 44.7416 14.175 44.2685 15.5957 43.4506C17.3604 42.4603 19.0391 41.0404 20.9328 38.9745C22.8264 41.0404 24.5481 42.4603 26.2698 43.4506C27.6909 44.2685 29.1537 44.7416 30.574 44.9135C30.9184 44.9573 31.3493 45 31.6937 45C32.8989 45 34.1038 44.785 35.1796 44.3109C38.1929 43.105 40.3015 40.3513 40.7756 37.166C41.1174 35.6596 40.9455 34.1538 40.3859 32.5607ZM20.9745 34.7988C18.6499 31.8718 17.1433 29.1173 16.6273 26.7936C16.4123 25.8034 16.3688 24.9425 16.4983 24.1677C16.5838 23.4789 16.8427 22.876 17.1871 22.3596C18.0049 21.1982 19.3822 20.4659 20.9749 20.4659C22.568 20.4659 23.9883 21.1548 24.7631 22.3596C25.1075 22.876 25.3655 23.4793 25.4524 24.1677C25.5809 24.943 25.5379 25.8464 25.323 26.7936C24.8048 29.0743 23.2981 31.8293 20.9745 34.7988ZM38.1474 36.8218C37.8466 39.06 36.3399 40.9974 34.231 41.8584C33.1982 42.2884 32.0785 42.4176 30.9601 42.2884C29.8843 42.1588 28.8076 41.8146 27.6892 41.1696C26.1395 40.3079 24.5903 38.9745 22.7822 36.9937C25.6227 33.5079 27.3444 30.3221 27.9902 27.4821C28.2916 26.1474 28.335 24.9425 28.2052 23.8229C28.0336 22.747 27.6458 21.7568 27.0434 20.8959C25.7082 18.9584 23.4697 17.84 20.974 17.84C18.4784 17.84 16.2398 19.0022 14.9056 20.8959C14.3032 21.7568 13.9153 22.747 13.7433 23.8229C13.5713 24.9425 13.6139 26.1904 13.9583 27.4821C14.6038 30.3221 16.3684 33.5505 19.1659 37.0368C17.4013 39.0169 15.8086 40.3517 14.2589 41.2124C13.1396 41.8584 12.0642 42.2026 10.9884 42.3315C9.82657 42.4607 8.70685 42.2884 7.71702 41.9015C5.60834 41.0404 4.10167 39.103 3.80068 36.8648C3.67168 35.789 3.75725 34.7132 4.1881 33.5079C4.31667 33.0771 4.53252 32.6471 4.74752 32.1307C5.04893 31.4419 5.39252 30.7096 5.73734 29.9781L5.78079 29.8926C8.7503 23.4789 11.9352 16.9365 15.2496 10.5667L15.3786 10.3078C15.7234 9.66285 16.0678 8.97402 16.4118 8.32817C16.7563 7.63931 17.1433 6.99348 17.6171 6.43362C18.5209 5.40165 19.7258 4.84137 21.0605 4.84137C22.3952 4.84137 23.6 5.40165 24.5038 6.43362C24.9777 6.99476 25.3647 7.64062 25.7091 8.32817C26.0539 8.97402 26.3984 9.66285 26.7419 10.3078L26.8714 10.5667C30.1352 16.963 33.2778 23.4205 36.2975 29.9356V29.9786C36.6424 30.6683 36.9435 31.4423 37.2877 32.132C37.5027 32.6475 37.7184 33.0775 37.8473 33.5084C38.1908 34.6264 38.32 35.703 38.1474 36.8218Z" fill="#FF5A5F"/>
</svg>
