<svg width="140" height="48" viewBox="0 0 140 48" fill="none" xmlns="http://www.w3.org/2000/svg">
<path d="M52.8205 19.0138H46.3976V15.877C46.4249 12.2469 47.3913 10.8983 48.4538 10.2061C49.5498 9.48911 51.219 9.42387 52.8201 9.43852C52.9803 9.43856 53.139 9.40699 53.2869 9.34563C53.435 9.28426 53.5692 9.19431 53.6824 9.08092C53.7957 8.96753 53.8854 8.83293 53.9463 8.68483C54.0072 8.53674 54.0383 8.37806 54.038 8.21788C54.038 8.05794 54.0065 7.89955 53.9456 7.75177C53.8843 7.604 53.7947 7.46972 53.6814 7.35663C53.5685 7.24353 53.434 7.15382 53.2862 7.09263C53.1384 7.03144 52.9803 6.99996 52.8201 7C51.2265 7.01299 49.0745 6.94555 47.1497 8.14518C45.1924 9.3697 43.9331 11.8508 43.9588 15.8773V19.0141H41.4488C40.774 19.0141 40.2272 19.5614 40.2272 20.2319C40.2275 20.5557 40.3565 20.866 40.5855 21.0948C40.8144 21.3235 41.1251 21.452 41.4488 21.452H43.9588V39.7293C43.9588 40.4004 44.5039 40.9511 45.1787 40.9511C45.8535 40.9511 46.3993 40.4004 46.3993 39.7293C46.3989 28.0417 46.3965 27.2363 46.3965 21.452H52.8194C53.1431 21.4517 53.4532 21.3232 53.6824 21.0944C53.9114 20.8657 54.0404 20.5556 54.0411 20.2319C54.0421 19.5611 53.4932 19.0138 52.8205 19.0138ZM81.5435 38.5145V38.509C79.4873 38.5272 77.8294 38.4036 76.8887 37.6955C75.9573 37.0335 75.1302 35.5862 75.1196 31.8977C75.1179 26.6514 75.1169 24.2256 75.1169 21.4846H81.5422C82.2163 21.4846 82.7624 20.9376 82.7624 20.2646C82.7624 19.5915 82.2153 19.0472 81.5422 19.0472H75.1169C75.1169 16.6184 75.1196 13.4833 75.1196 8.22009C75.1196 7.54619 74.5718 7 73.898 7C73.2239 7 72.6829 7.54647 72.6829 8.22009V19.0472H70.1695C69.8468 19.0475 69.5375 19.1759 69.3092 19.4041C69.081 19.6323 68.9527 19.9418 68.9523 20.2646C68.9523 20.5876 69.0806 20.8975 69.3085 21.1262C69.5368 21.3549 69.8465 21.4838 70.1695 21.4846H72.6829V31.8977C72.6685 35.8678 73.6099 38.3362 75.468 39.6774C77.3213 40.9693 79.4873 40.9337 81.5432 40.9508C81.7033 40.9506 81.8621 40.9189 82.01 40.8574C82.1581 40.7959 82.2923 40.7058 82.4055 40.5924C82.5188 40.4789 82.6084 40.3443 82.6694 40.1961C82.7306 40.048 82.7617 39.8893 82.7617 39.729C82.7614 39.5693 82.7299 39.4111 82.6687 39.2635C82.6074 39.116 82.5178 38.9819 82.4045 38.8691C82.2912 38.7563 82.1571 38.6669 82.0093 38.6061C81.8614 38.5452 81.7034 38.5141 81.5435 38.5145ZM137.621 38.517V38.5112C134.989 38.5289 133.375 38.2417 132.598 37.5211C131.796 36.8588 131.192 35.3255 131.196 31.9491V21.4844H137.62C138.296 21.4844 138.838 20.9373 138.838 20.2643C138.838 19.5912 138.296 19.0469 137.62 19.0469H131.196V8.2176C131.196 8.05779 131.165 7.89949 131.104 7.75177C131.043 7.60405 130.953 7.46982 130.84 7.35678C130.727 7.24373 130.593 7.1541 130.446 7.09302C130.298 7.03194 130.14 7.00061 129.98 7.00083C129.306 7.00083 128.758 7.54398 128.758 8.2176V19.0469H126.247C126.087 19.0467 125.928 19.078 125.78 19.139C125.632 19.2001 125.498 19.2897 125.384 19.4027C125.271 19.5157 125.181 19.65 125.119 19.7978C125.057 19.9457 125.026 20.1042 125.026 20.2643C125.026 20.588 125.155 20.8983 125.384 21.1271C125.612 21.3559 125.923 21.4844 126.247 21.4844H128.758V31.9491C128.766 35.5137 129.317 37.871 131.003 39.3631C132.713 40.804 134.92 40.9315 137.621 40.9502C137.943 40.9498 138.253 40.8213 138.481 40.593C138.709 40.3647 138.838 40.0552 138.838 39.7324C138.838 39.5726 138.807 39.4144 138.745 39.2667C138.684 39.1191 138.595 38.985 138.482 38.8721C138.369 38.7592 138.234 38.6697 138.087 38.6088C137.939 38.5479 137.781 38.5167 137.621 38.517ZM60.2111 39.729V20.2333C60.2111 19.5611 60.7579 19.0138 61.4276 19.0138C61.7513 19.014 62.0613 19.1425 62.2902 19.3711C62.5192 19.5998 62.6478 19.9098 62.6485 20.2333V39.729C62.6485 40.4002 62.101 40.9508 61.4276 40.9508C60.7579 40.9508 60.2111 40.4002 60.2111 39.729ZM116.806 39.729V20.2333C116.806 19.5611 117.347 19.0138 118.02 19.0138C118.18 19.0137 118.339 19.0451 118.487 19.1063C118.635 19.1676 118.77 19.2574 118.883 19.3706C118.997 19.4839 119.087 19.6183 119.148 19.7664C119.209 19.9144 119.241 20.0731 119.241 20.2333V39.729C119.241 40.0529 119.112 40.3634 118.883 40.5925C118.654 40.8215 118.344 40.9503 118.02 40.9508C117.347 40.9508 116.806 40.4002 116.806 39.729ZM99.9126 18.9322C96.4357 18.9345 93.3364 20.5454 91.3151 23.058V8.22009C91.31 7.90001 91.1796 7.59467 90.9517 7.37003C90.7235 7.14538 90.4162 7.01946 90.0962 7.01946C89.7759 7.01946 89.4687 7.14538 89.2408 7.37003C89.0125 7.59467 88.8822 7.90001 88.8774 8.22009V30.7025C88.8774 30.7887 88.9092 30.865 88.9277 30.9471C89.4238 36.5818 94.1471 41 99.9133 41C106.006 41 110.944 36.0635 110.944 29.9689C110.943 23.8737 106.006 18.935 99.9126 18.9322ZM99.9126 38.562C95.163 38.5529 91.3209 34.7171 91.3151 29.9689C91.3209 25.2176 95.1641 21.3802 99.9126 21.3718C104.66 21.3799 108.498 25.2168 108.505 29.9689C108.497 34.7168 104.66 38.5526 99.9126 38.562Z" fill="black"/>
<path d="M59.7074 14.1216C59.2516 13.6634 58.9953 13.044 58.9936 12.3978C58.9936 11.7554 59.2529 11.128 59.7074 10.6741C60.1645 10.2181 60.7836 9.96151 61.4293 9.96041C62.075 9.96186 62.694 10.2184 63.1519 10.6741C63.608 11.1319 63.8646 11.7515 63.866 12.3978C63.8643 13.0441 63.6076 13.6636 63.1519 14.1216C62.6937 14.5767 62.075 14.8334 61.4293 14.8364C60.7836 14.8337 60.1649 14.5768 59.7074 14.1216ZM116.298 14.1216C115.842 13.6636 115.585 13.0441 115.584 12.3978C115.584 11.7554 115.843 11.128 116.298 10.6741C116.757 10.2182 117.376 9.96171 118.023 9.96041C118.663 9.96041 119.29 10.2197 119.745 10.6741C120.2 11.1329 120.456 11.752 120.458 12.3978C120.455 13.0436 120.2 13.6626 119.745 14.1216C119.29 14.574 118.663 14.8364 118.023 14.8364C117.377 14.8336 116.757 14.5768 116.298 14.1216ZM14.2033 37.3063C13.8347 36.9362 13.6278 36.4352 13.6278 35.9129C13.6278 35.3947 13.8345 34.8882 14.2033 34.5217C14.5738 34.1536 15.0744 33.9462 15.5967 33.9446C16.1149 33.9446 16.6224 34.1552 16.9895 34.5217C17.3575 34.8913 17.5646 35.3914 17.5656 35.9129C17.5646 36.4351 17.3576 36.9359 16.9895 37.3063C16.619 37.6742 16.1188 37.8819 15.5967 37.8846C15.0744 37.8818 14.5741 37.6742 14.2033 37.3063Z" fill="#75C1C2"/>
<path d="M14.2033 25.6784C13.836 25.3074 13.6293 24.807 13.6278 24.285C13.6278 23.7656 13.8367 23.2586 14.2033 22.8915C14.5734 22.5241 15.0734 22.3171 15.595 22.3155C16.115 22.3155 16.6202 22.5256 16.9895 22.8915C17.3577 23.262 17.5647 23.7627 17.5656 24.285C17.564 24.8071 17.3571 25.3076 16.9895 25.6784C16.618 26.0455 16.1173 26.2521 15.595 26.2539C15.0735 26.2521 14.5737 26.0454 14.2033 25.6784Z" fill="black"/>
<path d="M14.2038 14.0501C13.8376 13.6792 13.631 13.1797 13.6283 12.6584C13.6283 12.1379 13.8395 11.631 14.2038 11.2628C14.5744 10.8963 15.0744 10.6905 15.5956 10.6901C16.1171 10.6903 16.6176 10.896 16.9884 11.2628C17.3571 11.6338 17.5646 12.1353 17.5656 12.6584C17.5638 13.1802 17.3564 13.6802 16.9884 14.0501C16.6178 14.4177 16.1175 14.6244 15.5956 14.6256C15.0776 14.6256 14.5701 14.4156 14.2038 14.0501ZM14.1521 19.809C13.7981 19.4265 13.6104 18.919 13.6305 18.3981C13.6497 17.8753 13.8757 17.3815 14.2588 17.0252C14.6434 16.6725 15.1518 16.4858 15.6732 16.5058C16.1938 16.5259 16.6851 16.7515 17.0396 17.1333C17.3909 17.5161 17.586 18.0278 17.5642 18.5499C17.5415 19.0712 17.3146 19.5625 16.9326 19.9179C16.5487 20.2707 16.0416 20.4588 15.5204 20.4417C14.9988 20.4192 14.5071 20.1919 14.1521 19.809ZM14.2038 31.4921C13.8368 31.121 13.63 30.6207 13.6278 30.0988C13.6278 29.5794 13.839 29.073 14.2038 28.7059C14.5741 28.3378 15.0746 28.1306 15.5967 28.1293C16.1149 28.1293 16.6224 28.3394 16.9884 28.7059C17.3568 29.0759 17.5643 29.5765 17.5656 30.0988C17.5656 30.6176 17.3555 31.124 16.9884 31.4921C16.6176 31.8586 16.118 32.0652 15.5967 32.0676C15.075 32.0655 14.5749 31.8588 14.2038 31.4921Z" fill="#75C1C2"/>
<path d="M20.0175 25.6783C19.6504 25.3072 19.4434 24.8069 19.4409 24.2849C19.4409 23.7655 19.6521 23.2586 20.0175 22.8915C20.388 22.5239 20.8884 22.317 21.4103 22.3155C21.9323 22.3176 22.4326 22.5244 22.8038 22.8915C23.1718 23.262 23.379 23.7627 23.3803 24.2849C23.3784 24.807 23.1713 25.3074 22.8038 25.6783C22.4324 26.045 21.9322 26.2516 21.4103 26.2538C20.8885 26.2523 20.3882 26.0455 20.0175 25.6783ZM20.0175 19.8634C19.6505 19.4935 19.4439 18.9939 19.4426 18.4727C19.4426 17.9517 19.6521 17.447 20.0175 17.0777C20.389 16.712 20.889 16.5064 21.4103 16.505C21.9286 16.505 22.4356 16.7134 22.8038 17.0777C23.1718 17.4489 23.3789 17.95 23.3803 18.4727C23.3803 18.9899 23.1703 19.498 22.8038 19.8634C22.4332 20.2317 21.9328 20.4397 21.4103 20.4428C20.8881 20.4396 20.3879 20.2316 20.0175 19.8634ZM20.0175 31.4921C19.6497 31.1215 19.4425 30.6209 19.4409 30.0987C19.4409 29.5793 19.651 29.0729 20.0175 28.7059C20.3878 28.3379 20.8883 28.1307 21.4103 28.1293C21.9303 28.1293 22.4367 28.3393 22.8038 28.7059C23.1718 29.0762 23.379 29.5766 23.3803 30.0987C23.3803 30.6175 23.1703 31.124 22.8038 31.4921C22.4323 31.8587 21.9322 32.0652 21.4103 32.0676C20.8886 32.0654 20.3886 31.8588 20.0175 31.4921ZM25.8313 25.6783C25.4641 25.3073 25.2574 24.8069 25.2558 24.2849C25.2558 23.7655 25.4648 23.2586 25.8313 22.8915C26.2019 22.524 26.7022 22.317 27.2241 22.3155C27.743 22.3155 28.2505 22.5255 28.6176 22.8915C28.9844 23.2626 29.1906 23.7631 29.1914 24.2849C29.1899 24.8066 28.9839 25.3069 28.6176 25.6783C28.2466 26.0456 27.7461 26.2523 27.2241 26.2538C26.7023 26.2522 26.2021 26.0454 25.8313 25.6783ZM8.38794 25.6783C8.02098 25.3071 7.81416 24.8068 7.8119 24.2849C7.8119 23.7655 8.02251 23.2586 8.38794 22.8915C8.75959 22.5232 9.26141 22.3163 9.78466 22.3155C10.2996 22.3155 10.8065 22.5255 11.1747 22.8915C11.542 23.2625 11.7489 23.7629 11.7508 24.2849C11.7482 24.8068 11.5415 25.307 11.1747 25.6783C10.8045 26.0446 10.3055 26.2512 9.78466 26.2538C9.26155 26.2529 8.7598 26.0462 8.38794 25.6783Z" fill="black"/>
<path d="M8.39071 19.8634C8.02098 19.4949 7.81279 18.9947 7.8119 18.4727C7.8119 17.9517 8.02115 17.447 8.39071 17.0777C8.76089 16.711 9.26083 16.5052 9.78189 16.505C10.2996 16.505 10.8065 16.7134 11.1742 17.0777C11.5418 17.4492 11.7489 17.9501 11.7508 18.4727C11.7488 18.9941 11.5417 19.4936 11.1742 19.8634C10.804 20.2316 10.304 20.4397 9.78189 20.4428C9.25991 20.4406 8.75987 20.2324 8.39071 19.8634ZM8.38849 31.4921C8.02217 31.1208 7.81648 30.6203 7.81576 30.0987C7.81576 29.5793 8.02306 29.0729 8.38849 28.7059C8.75922 28.3375 9.26035 28.1303 9.78298 28.1293C10.3013 28.1293 10.8099 28.3393 11.1758 28.7059C11.5444 29.0759 11.7519 29.5765 11.7533 30.0987C11.7516 30.6211 11.5441 31.1217 11.1758 31.4921C10.8046 31.8586 10.3046 32.0652 9.78298 32.0676C9.26073 32.0659 8.75997 31.8592 8.38849 31.4921Z" fill="#75C1C2"/>
<path d="M2.57605 25.6784C2.208 25.3079 2.001 24.8072 2 24.285C2.00034 23.7626 2.20744 23.2617 2.57605 22.8915C2.9467 22.5241 3.44699 22.3172 3.96889 22.3155C4.49067 22.317 4.99086 22.524 5.36119 22.8915C5.72847 23.2625 5.93509 23.763 5.93642 24.285C5.93444 24.8068 5.72792 25.3071 5.36119 25.6784C4.99067 26.0456 4.49056 26.2523 3.96889 26.2539C3.44711 26.2521 2.94691 26.0454 2.57605 25.6784Z" fill="black"/>
</svg>
