<svg width="140" height="48" viewBox="0 0 140 48" fill="none" xmlns="http://www.w3.org/2000/svg">
<path d="M85.0671 16.8329C82.8469 16.8329 81.1029 17.3092 79.3581 18.26C79.3581 13.1846 79.3581 8.58554 79.5174 7L68.8895 8.90246V9.85414L69.9996 10.0126C71.4258 10.3295 71.9038 11.1218 72.2181 13.0261C72.5376 16.8329 72.3774 37.1353 72.2181 40.4666C75.073 41.1014 78.0873 41.5776 81.102 41.5776C89.5089 41.5776 94.5841 36.3429 94.5841 28.0947C94.5841 21.5922 90.4605 16.8329 85.0671 16.8329ZM81.419 39.8318C80.7842 39.8318 79.9902 39.8318 79.5157 39.6743C79.3563 37.454 79.1987 28.0947 79.3563 19.8473C80.308 19.5295 80.9418 19.371 81.7359 19.371C85.2273 19.371 87.1306 23.4947 87.1306 28.5691C87.1298 34.9159 84.7502 39.8318 81.419 39.8318ZM28.9167 7.63385H1V9.06092L2.58645 9.21938C4.64737 9.53631 5.44149 10.8049 5.75753 13.8185C6.23472 19.5286 6.07538 29.8396 5.75753 34.7546C5.44061 37.7691 4.64828 39.1971 2.58645 39.3537L1 39.6724V40.9411H18.9236V39.6724L17.0202 39.3537C14.9584 39.1961 14.1652 37.7691 13.8482 34.7546C13.6888 32.6919 13.5304 29.3605 13.5304 25.2378L17.3371 25.3962C19.7168 25.3962 20.826 27.2996 21.3024 29.9953H22.7303V18.7372H21.3024C20.8251 21.4338 19.7168 23.3362 17.3371 23.3362L13.5313 23.4956C13.5313 18.1024 13.6898 13.027 13.8492 10.0135H19.3999C23.6839 10.0135 25.9041 12.7092 27.4897 17.4686L29.0761 16.9923L28.9167 7.63385Z" fill="#231F20"/>
<path d="M37.9582 16.5161C45.8897 16.5161 49.8547 21.9093 49.8547 29.0465C49.8547 35.8668 45.4134 41.5788 37.4819 41.5788C29.5515 41.5788 25.5863 36.1846 25.5863 29.0465C25.5863 22.2263 30.0269 16.5161 37.9582 16.5161ZM37.4819 18.1026C33.9921 18.1026 33.0404 22.861 33.0404 29.0465C33.0404 35.0736 34.6269 39.9905 37.7998 39.9905C41.4453 39.9905 42.3988 35.232 42.3988 29.0465C42.3988 23.0195 40.8142 18.1026 37.4819 18.1026ZM96.6449 29.2059C96.6449 22.7026 100.768 16.5161 108.858 16.5161C115.519 16.5161 118.692 21.434 118.692 27.9364H103.941C103.781 33.805 106.636 38.088 112.347 38.088C114.886 38.088 116.154 37.4551 117.741 36.344L118.374 37.1363C116.788 39.3566 113.299 41.5788 108.858 41.5788C101.72 41.5778 96.6449 36.5025 96.6449 29.2059ZM103.941 26.1924L111.396 26.033C111.396 22.861 110.919 18.1026 108.224 18.1026C105.528 18.1026 104.098 22.5432 103.941 26.1924ZM137.57 17.7857C135.667 16.9915 133.129 16.5161 130.274 16.5161C124.407 16.5161 120.757 20.005 120.757 24.1297C120.757 28.2542 123.45 29.9982 127.262 31.2677C131.226 32.6939 132.337 33.805 132.337 35.7083C132.337 37.6117 130.909 39.3557 128.371 39.3557C125.359 39.3557 123.137 37.6117 121.392 32.8523L120.281 33.1711L120.441 40.1498C122.344 40.9422 125.833 41.5778 128.847 41.5778C135.034 41.5778 139 38.404 139 33.488C139 30.1567 137.254 28.2542 133.131 26.6668C128.688 24.9228 127.103 23.8127 127.103 21.7499C127.103 19.6881 128.533 18.2601 130.437 18.2601C133.29 18.2601 135.193 20.005 136.623 24.2881L137.732 23.9711L137.57 17.7857ZM70.4741 17.1509C67.7785 15.5663 63.0189 16.3577 60.4818 22.0687L60.6394 16.5171L50.0132 18.5789V19.5306L51.1233 19.689C52.5521 19.8484 53.1851 20.6407 53.3444 22.7035C53.6613 26.5102 53.5029 33.1729 53.3444 36.5034C53.1851 38.4049 52.5521 39.3566 51.1233 39.516L50.0132 39.6754V40.944H64.7638V39.6754L62.8605 39.516C61.275 39.3566 60.7987 38.4049 60.6394 36.5034C60.3224 33.4889 60.3224 27.4619 60.4818 23.6552C61.2741 22.5441 64.7638 21.5933 67.9361 23.6552L70.4741 17.1509Z" fill="#231F20"/>
</svg>
