<svg width="140" height="48" viewBox="0 0 140 48" fill="none" xmlns="http://www.w3.org/2000/svg">
<path d="M2 11.352H6.7422V21.8878H16.7438V11.352H21.492V37.2141H16.7438V26.4571H6.7422V37.2141H2V11.352ZM36.5152 28.7905C36.5152 30.9554 34.7514 32.7171 32.587 32.7171C30.4218 32.7171 28.659 30.9554 28.659 28.7905V17.6559H24.1617V28.7905C24.1617 33.4357 27.9415 37.2141 32.587 37.2141C37.2313 37.2141 41.011 33.4357 41.011 28.7905V17.6559H36.5152V28.7905ZM53.5654 17.7864C51.3346 17.7864 49.7776 18.4337 48.2737 19.9099V11.352H43.762V27.212C43.762 33.1485 48.0541 37.2141 52.8762 37.2141C58.2369 37.2141 62.9339 33.076 62.9339 27.5005C62.9339 21.9957 58.6028 17.7864 53.5654 17.7864ZM53.6776 33.0401C50.6205 33.0401 48.2826 30.4868 48.2826 27.5005C48.2826 24.5137 50.6205 21.9595 53.6776 21.9595C56.2682 21.9595 58.6072 24.5137 58.6072 27.5005C58.6072 30.4868 56.2682 33.0401 53.6776 33.0401ZM70.5119 18.923C70.5119 16.655 72.0233 15.9359 73.6775 15.9359C75.0097 15.9359 76.772 16.9432 77.9223 18.1667L80.8716 14.7132C79.3976 12.7347 76.4122 11.3672 73.9655 11.3672C69.0723 11.3672 65.5463 14.2095 65.5463 18.923C65.5463 27.6652 76.3041 24.8941 76.3041 29.7882C76.3041 31.2976 74.8295 32.63 73.1396 32.63C70.4762 32.63 69.6122 31.3347 68.3895 29.9672L65.1152 33.3485C67.2029 35.9032 69.7924 37.199 72.8869 37.199C77.5275 37.199 81.2694 34.3208 81.2694 29.823C81.2694 20.1096 70.5119 23.1321 70.5119 18.923ZM93.1469 17.533C88.3254 17.533 84.0327 21.5962 84.0327 27.534V43.4347H88.5444V34.8364C90.0483 36.3115 91.6049 36.9599 93.8365 36.9599C98.8735 36.9599 103.205 32.7511 103.205 27.2463C103.205 21.67 98.5069 17.533 93.1469 17.533ZM93.9487 32.7872C90.8919 32.7872 88.5536 30.2305 88.5536 27.2463C88.5536 24.2595 90.8919 21.7053 93.9487 21.7053C96.5386 21.7053 98.8782 24.2595 98.8782 27.2463C98.8782 30.2305 96.5386 32.7872 93.9487 32.7872ZM136.416 33.0401C133.755 33.0401 132.999 31.8894 132.999 30.1258V22.3192H137.136V18.3623H132.999V13.1451L128.431 15.1953V31.0972C128.431 35.1631 131.236 37.2141 135.084 37.2141C135.66 37.2141 136.452 37.1769 136.884 37.0704L138 32.9695C137.496 33.0043 136.921 33.0401 136.416 33.0401Z" fill="#45535E"/>
<path d="M124.517 22.5493C123.653 21.0612 122.436 19.8682 120.915 18.9701C119.778 18.3084 118.6 17.8884 117.271 17.708V12.9796C118.6 12.4157 119.424 11.1675 119.424 9.71122C119.424 7.72636 117.832 6.11794 115.849 6.11794C113.864 6.11794 112.244 7.72636 112.244 9.71122C112.244 11.1675 113.021 12.4157 114.349 12.9796V17.7101C113.287 17.8637 112.185 18.1949 111.179 18.7039C109.123 17.143 102.384 12.0223 98.4417 9.03146C98.5352 8.69436 98.6072 8.3469 98.6072 7.98032C98.6072 5.78191 96.8269 4 94.6277 4C92.4284 4 90.6491 5.78191 90.6491 7.98032C90.6491 10.1785 92.4305 11.9609 94.6297 11.9609C95.3798 11.9609 96.0738 11.7415 96.6722 11.3808L97.5042 12.0119L108.936 20.2489C108.332 20.8038 107.769 21.4349 107.319 22.1432C106.407 23.5869 105.849 25.1754 105.849 26.9082V27.2697C105.849 28.486 106.08 29.6344 106.474 30.7132C106.82 31.6551 107.327 32.5115 107.955 33.2859L104.161 37.0893C103.611 36.8847 103.014 36.8427 102.441 36.9683C101.868 37.094 101.343 37.382 100.929 37.798C100.643 38.0832 100.415 38.4222 100.261 38.7955C100.106 39.1692 100.027 39.5694 100.029 39.9737C100.029 40.7952 100.349 41.5673 100.931 42.1484C101.216 42.4351 101.555 42.6625 101.928 42.8172C102.301 42.972 102.701 43.0512 103.106 43.0498C103.51 43.0508 103.91 42.972 104.284 42.8172C104.657 42.6622 104.997 42.4351 105.281 42.1484C105.568 41.8635 105.795 41.5245 105.949 41.1512C106.104 40.7778 106.183 40.3776 106.182 39.9737C106.182 39.6558 106.133 39.3453 106.04 39.0505L109.962 35.1284C110.5 35.4997 111.08 35.8124 111.705 36.082C112.936 36.6143 114.295 36.9387 115.782 36.9387H116.055C117.699 36.9387 119.25 36.5525 120.708 35.7624C122.245 34.9275 123.447 33.7858 124.356 32.3282C125.269 30.8667 125.772 29.2519 125.772 27.4753V27.3866C125.772 25.6389 125.367 24.0265 124.517 22.5493ZM119.726 30.7769C118.661 31.9598 117.438 32.6885 116.055 32.6885H115.827C115.037 32.6885 114.264 32.4701 113.508 32.073C112.655 31.6357 112.007 31.012 111.476 30.2223C110.928 29.4471 110.63 28.6008 110.63 27.7035V27.4309C110.63 26.5488 110.8 25.7122 111.226 24.9223C111.682 24.0586 112.298 23.3871 113.118 22.8532C113.922 22.323 114.781 22.0629 115.738 22.0629H115.827C116.694 22.0629 117.516 22.234 118.291 22.6306C119.081 23.0535 119.726 23.6312 120.226 24.3912C120.712 25.1515 121.001 25.9715 121.094 26.8649C121.109 27.0506 121.116 27.2407 121.116 27.4224C121.116 28.6348 120.653 29.7577 119.726 30.7769Z" fill="#F8761F"/>
</svg>
