<svg width="140" height="48" viewBox="0 0 140 48" fill="none" xmlns="http://www.w3.org/2000/svg">
<path d="M121.136 24.2C121.136 25.178 121.485 38.8706 117.014 43.2718C112.543 47.7429 97.9422 47.3936 97.9422 47.3936C97.9422 47.3936 83.2715 47.7429 78.8704 43.2718C74.3993 38.8008 74.7486 25.1082 74.7486 24.2C74.7486 23.2219 74.3993 9.52933 78.8704 5.12813C83.3414 0.657078 97.9422 1.00638 97.9422 1.00638C97.9422 1.00638 112.613 0.657078 117.014 5.12813C121.485 9.59919 121.136 23.2918 121.136 24.2Z" fill="#3E3D49"/>
<path d="M23.6807 30.1382V7.7131C23.6807 6.38575 22.7026 5.40771 21.3753 5.40771C20.0479 5.40771 19 6.38575 19 7.7131V30.2081C19 32.7929 21.0958 34.8887 23.6807 34.8887C25.008 34.8887 25.9861 33.9107 25.9861 32.5833C25.9861 31.1861 24.9382 30.1382 23.6807 30.1382Z" fill="#3E3D49"/>
<path d="M45.9662 13.791C44.8485 13.791 44.0101 14.5595 43.8005 15.6772C42.1938 14.5595 40.3075 13.791 38.2117 13.791C35.3475 13.791 32.8325 14.9786 31.086 16.9347C29.2696 18.8209 28.2217 21.4756 28.2217 24.3399C28.2217 27.2042 29.2696 29.789 31.086 31.7451C32.9023 33.6313 35.3475 34.8189 38.2117 34.8189C40.3075 34.8189 42.1938 34.1203 43.8005 33.0026C44.08 33.9806 44.9183 34.8189 45.9662 34.8189C47.1538 34.8189 48.2017 33.8409 48.2017 32.5834V16.0265C48.2017 14.769 47.1538 13.791 45.9662 13.791ZM42.054 28.6712C41.076 29.7191 39.6089 30.3479 38.1419 30.3479C36.6049 30.3479 35.2077 29.789 34.2297 28.6712C33.2516 27.5535 32.6229 26.0864 32.6229 24.3399C32.6229 22.5934 33.1818 21.0565 34.2297 20.0086C35.2077 18.8908 36.6049 18.2621 38.1419 18.2621C39.6089 18.2621 41.076 18.8209 42.054 20.0086C43.0321 21.0565 43.7307 22.5934 43.7307 24.3399C43.7307 26.0864 43.1019 27.6233 42.054 28.6712Z" fill="#3E3D49"/>
<path d="M67.9723 13.791C66.7148 13.791 65.8066 14.769 65.8066 16.0265V25.9467C65.8066 28.3918 63.8505 30.2082 61.4753 30.2082C59.1 30.2082 57.0741 28.3219 57.0741 25.9467V16.0265C57.0741 14.769 56.1659 13.791 54.8385 13.791C53.7208 13.791 52.6729 14.769 52.6729 16.0265V25.9467C52.6729 30.7671 56.6549 34.8189 61.4753 34.8189C62.8725 34.8189 64.2697 34.4696 65.4573 33.8409C64.7587 36.0066 62.6629 37.6134 60.2178 37.6832C59.3795 37.6832 58.5411 37.4736 57.7727 37.1243C56.7946 36.5655 55.3276 37.0545 54.7687 38.0325C54.2797 39.2201 54.6988 40.5475 55.8865 41.0365C57.1439 41.6653 58.6809 42.0844 60.2178 42.0844C65.8066 42.0844 70.2777 37.6832 70.2777 32.0245V16.0265C70.2078 14.769 69.1599 13.791 67.9723 13.791Z" fill="#3E3D49"/>
<path d="M114.36 18.3319C111.146 18.3319 108.212 22.1044 108.212 25.3179V32.5135C108.212 33.771 107.164 34.8189 105.906 34.8189C104.649 34.8189 103.601 33.771 103.601 32.5135V16.0964C103.601 14.8389 104.649 13.791 105.906 13.791C107.164 13.791 108.212 14.8389 108.212 16.0964V16.2361C109.609 14.6992 111.635 13.791 113.801 13.791H114.29C115.547 13.791 116.595 14.8389 116.595 16.0964C116.665 17.3539 115.617 18.3319 114.36 18.3319ZM96.9643 13.791C95.8465 13.791 95.0082 14.5595 94.7986 15.6772C93.1918 14.5595 91.3056 13.791 89.2098 13.791C86.3455 13.791 83.8305 14.9786 82.084 16.9347C80.2677 18.8209 79.2198 21.4756 79.2198 24.3399C79.2198 27.2042 80.2677 29.789 82.084 31.7451C83.9004 33.6313 86.3455 34.8189 89.2098 34.8189C91.3056 34.8189 93.1918 34.1203 94.7986 33.0026C95.078 33.9806 95.9164 34.8189 96.9643 34.8189C98.1519 34.8189 99.1998 33.8409 99.1998 32.5834V16.0265C99.1998 14.769 98.2217 13.791 96.9643 13.791ZM93.1219 28.6712C92.1439 29.7191 90.6768 30.3479 89.2098 30.3479C87.6728 30.3479 86.2756 29.789 85.2976 28.6712C84.3196 27.5535 83.6908 26.0864 83.6908 24.3399C83.6908 22.5934 84.2497 21.0565 85.2976 20.0086C86.2756 18.8908 87.6728 18.2621 89.2098 18.2621C90.6768 18.2621 92.1439 18.8209 93.1219 20.0086C94.1 21.0565 94.7986 22.5934 94.7986 24.3399C94.7287 26.0864 94.1 27.6233 93.1219 28.6712Z" fill="white"/>
</svg>
