<svg width="348" height="81" viewBox="0 0 348 81" fill="none" xmlns="http://www.w3.org/2000/svg">
<path d="M35.28 20.7041C35.28 18.4748 34.4 16.7441 32.64 15.5121C30.88 14.2215 28.4453 13.5761 25.336 13.5761C22.1093 13.5761 19.5867 14.1041 17.768 15.1601C16.008 16.1575 15.128 17.5068 15.128 19.2081C15.128 20.6748 15.6853 21.9068 16.8 22.9041C17.9147 23.8428 19.3227 24.6055 21.024 25.1921C22.784 25.7788 25.16 26.4241 28.152 27.1281C32.552 28.1841 36.16 29.2695 38.976 30.3841C41.8507 31.4988 44.2853 33.2295 46.28 35.5761C48.3333 37.9228 49.36 41.0615 49.36 44.9921C49.36 51.8561 47.1307 56.9015 42.672 60.1281C38.272 63.2961 32.2 64.8801 24.456 64.8801C17.416 64.8801 11.5787 63.3548 6.94399 60.3041C2.36799 57.1948 0.0799866 52.5015 0.0799866 46.2241L0.167987 44.2881H13.016L12.928 45.6961C12.928 48.2775 13.896 50.3308 15.832 51.8561C17.768 53.3228 20.496 54.0561 24.016 54.0561C28.1227 54.0561 31.056 53.4108 32.816 52.1201C34.6347 50.8295 35.544 49.1868 35.544 47.1921C35.544 45.6668 34.9867 44.4348 33.872 43.4961C32.816 42.4988 31.4373 41.7361 29.736 41.2081C28.0933 40.6215 25.776 39.9761 22.784 39.2721C18.3253 38.1575 14.688 37.0428 11.872 35.9281C9.05599 34.8135 6.62132 33.0241 4.56799 30.5601C2.51465 28.0961 1.48799 24.7815 1.48799 20.6161C1.48799 16.7441 2.54399 13.4588 4.65599 10.7601C6.76799 8.06147 9.58399 6.0668 13.104 4.77614C16.6827 3.4268 20.672 2.75214 25.072 2.75214C31.8187 2.75214 37.3333 4.24814 41.616 7.24014C45.8987 10.1735 48.04 14.5735 48.04 20.4401V21.4961H35.28V20.7041Z" fill="#1C1C23"/>
<path d="M86.2114 33.6401C86.2114 31.6455 85.566 30.0321 84.2754 28.8001C83.0434 27.5681 81.0194 26.9521 78.2034 26.9521C76.5607 26.9521 75.1527 27.2455 73.9794 27.8321C72.806 28.3601 71.8967 29.0348 71.2514 29.8561C70.6647 30.6775 70.3714 31.4401 70.3714 32.1441V32.8481H57.9634C57.846 32.1441 57.7874 31.6161 57.7874 31.2641C57.7874 28.7415 58.6087 26.4828 60.2514 24.4881C61.9527 22.4935 64.2994 20.9388 67.2914 19.8241C70.2834 18.7095 73.7154 18.1521 77.5874 18.1521H79.4354C85.7714 18.1521 90.582 19.4135 93.8674 21.9361C97.1527 24.4001 98.7954 27.8028 98.7954 32.1441V52.9121C98.7954 53.9681 99.03 54.7601 99.4994 55.2881C100.027 55.8161 100.643 56.0801 101.347 56.0801C101.934 56.0801 102.579 55.9628 103.283 55.7281C103.987 55.4935 104.545 55.2881 104.955 55.1121V63.0321C102.785 64.2641 100.203 64.8801 97.2114 64.8801C93.9847 64.8801 91.5207 64.2348 89.8194 62.9441C88.118 61.5948 87.1207 59.7175 86.8274 57.3121C82.7207 62.3575 77.6754 64.8801 71.6914 64.8801C67.2327 64.8801 63.566 63.9708 60.6914 62.1521C57.8167 60.3335 56.3794 56.8721 56.3794 51.7681C56.3794 47.6028 57.5527 44.4348 59.8994 42.2641C62.3047 40.0348 65.6194 38.5388 69.8434 37.7761C74.0674 37.0135 79.5234 36.6321 86.2114 36.6321V33.6401ZM86.2114 43.8481C80.638 43.8481 76.4727 44.4055 73.7154 45.5201C71.0167 46.5761 69.6674 48.3361 69.6674 50.8001C69.6674 52.7361 70.1954 54.1148 71.2514 54.9361C72.366 55.6988 74.038 56.0801 76.2674 56.0801C77.7927 56.0801 79.318 55.6695 80.8434 54.8481C82.3687 54.0268 83.63 52.8535 84.6274 51.3281C85.6834 49.8028 86.2114 48.1015 86.2114 46.2241V43.8481Z" fill="#1C1C23"/>
<path d="M138.805 33.6401C138.805 31.6455 138.16 30.0321 136.869 28.8001C135.637 27.5681 133.613 26.9521 130.797 26.9521C129.154 26.9521 127.746 27.2455 126.573 27.8321C125.4 28.3601 124.49 29.0348 123.845 29.8561C123.258 30.6775 122.965 31.4401 122.965 32.1441V32.8481H110.557C110.44 32.1441 110.381 31.6161 110.381 31.2641C110.381 28.7415 111.202 26.4828 112.845 24.4881C114.546 22.4935 116.893 20.9388 119.885 19.8241C122.877 18.7095 126.309 18.1521 130.181 18.1521H132.029C138.365 18.1521 143.176 19.4135 146.461 21.9361C149.746 24.4001 151.389 27.8028 151.389 32.1441V52.9121C151.389 53.9681 151.624 54.7601 152.093 55.2881C152.621 55.8161 153.237 56.0801 153.941 56.0801C154.528 56.0801 155.173 55.9628 155.877 55.7281C156.581 55.4935 157.138 55.2881 157.549 55.1121V63.0321C155.378 64.2641 152.797 64.8801 149.805 64.8801C146.578 64.8801 144.114 64.2348 142.413 62.9441C140.712 61.5948 139.714 59.7175 139.421 57.3121C135.314 62.3575 130.269 64.8801 124.285 64.8801C119.826 64.8801 116.16 63.9708 113.285 62.1521C110.41 60.3335 108.973 56.8721 108.973 51.7681C108.973 47.6028 110.146 44.4348 112.493 42.2641C114.898 40.0348 118.213 38.5388 122.437 37.7761C126.661 37.0135 132.117 36.6321 138.805 36.6321V33.6401ZM138.805 43.8481C133.232 43.8481 129.066 44.4055 126.309 45.5201C123.61 46.5761 122.261 48.3361 122.261 50.8001C122.261 52.7361 122.789 54.1148 123.845 54.9361C124.96 55.6988 126.632 56.0801 128.861 56.0801C130.386 56.0801 131.912 55.6695 133.437 54.8481C134.962 54.0268 136.224 52.8535 137.221 51.3281C138.277 49.8028 138.805 48.1015 138.805 46.2241V43.8481Z" fill="#1C1C23"/>
<path d="M171.951 50.2721C171.951 52.3255 172.86 53.8215 174.679 54.7601C176.498 55.6401 178.756 56.0801 181.455 56.0801C183.802 56.0801 185.884 55.7281 187.703 55.0241C189.58 54.3201 190.519 53.2055 190.519 51.6801C190.519 50.0375 189.668 48.8641 187.967 48.1601C186.266 47.4561 183.626 46.8401 180.047 46.3121C176.292 45.6668 173.212 44.9628 170.807 44.2001C168.402 43.4375 166.319 42.1175 164.559 40.2401C162.858 38.3628 162.007 35.7521 162.007 32.4081C162.007 29.3575 162.887 26.7761 164.647 24.6641C166.466 22.4935 168.842 20.8801 171.775 19.8241C174.767 18.7095 178.023 18.1521 181.543 18.1521H183.303C186.412 18.1521 189.346 18.6801 192.103 19.7361C194.919 20.7335 197.178 22.1708 198.879 24.0481C200.58 25.8668 201.431 27.9495 201.431 30.2961C201.431 30.7655 201.402 31.2055 201.343 31.6161C201.284 31.9681 201.255 32.1735 201.255 32.2321H189.991C189.991 28.7121 187.292 26.9521 181.895 26.9521C179.431 26.9521 177.436 27.3041 175.911 28.0081C174.444 28.7121 173.711 29.6801 173.711 30.9121C173.711 32.3788 174.503 33.4055 176.087 33.9921C177.73 34.5788 180.282 35.1361 183.743 35.6641C187.674 36.3095 190.842 37.0135 193.247 37.7761C195.711 38.4801 197.852 39.8001 199.671 41.7361C201.49 43.6135 202.399 46.2828 202.399 49.7441C202.399 55.0828 200.522 58.9548 196.767 61.3601C193.012 63.7068 188.231 64.8801 182.423 64.8801H179.519C175.882 64.8801 172.626 64.3228 169.751 63.2081C166.876 62.0935 164.618 60.5095 162.975 58.4561C161.391 56.4028 160.599 54.0561 160.599 51.4161L160.687 49.6561H171.951V50.2721Z" fill="#1C1C23"/>
<path d="M211.292 64.0001V0.640137H224.14V64.0001H211.292Z" fill="#1C1C23"/>
<path d="M277.582 47.1921C277.582 51.1228 276.644 54.4375 274.767 57.1361C272.889 59.7761 270.396 61.7415 267.286 63.0321C264.236 64.2641 260.892 64.8801 257.255 64.8801H255.846C251.681 64.8801 247.926 64.0001 244.582 62.2401C241.238 60.4801 238.598 57.9575 236.662 54.6721C234.785 51.3281 233.846 47.3681 233.846 42.7921V40.2401C233.846 35.7228 234.814 31.7921 236.75 28.4481C238.686 25.1041 241.297 22.5521 244.582 20.7921C247.926 19.0321 251.681 18.1521 255.846 18.1521H257.255C260.892 18.1521 264.265 18.9148 267.375 20.4401C270.484 21.9068 272.977 24.0775 274.854 26.9521C276.732 29.7681 277.671 33.1121 277.671 36.9841V43.6721H246.87V45.7841C246.87 48.7175 247.721 51.1815 249.422 53.1761C251.182 55.1121 253.559 56.0801 256.551 56.0801C259.249 56.0801 261.361 55.3468 262.887 53.8801C264.471 52.3548 265.263 50.1255 265.263 47.1921H277.582ZM255.934 26.9521C253.353 26.9521 251.241 27.8615 249.598 29.6801C248.014 31.4988 247.105 33.8161 246.87 36.6321H264.647C264.647 33.6401 263.943 31.2935 262.535 29.5921C261.185 27.8321 258.985 26.9521 255.934 26.9521Z" fill="#1C1C23"/>
<path d="M312.077 61.5361C309.906 67.4028 307.237 72.0081 304.069 75.3521C300.901 78.7548 297.088 80.4561 292.629 80.4561C289.52 80.4561 286.997 80.0161 285.061 79.1361V70.0721C285.765 70.3655 286.674 70.6295 287.789 70.8641C288.904 71.1575 289.96 71.3041 290.957 71.3041C294.712 71.3041 297.381 68.5761 298.965 63.1201L281.981 19.0321H295.621L305.565 47.2801H306.093L315.421 19.0321H328.093L312.077 61.5361Z" fill="#1C1C23"/>
<path d="M334.353 51.0641H347.201V64.0001H334.353V51.0641Z" fill="#1C1C23"/>
</svg>
